<?xml version="1.0" encoding="utf-8"?>
<!-- Generator: Adobe Illustrator 24.2.3, SVG Export Plug-In . SVG Version: 6.00 Build 0)  -->
<svg version="1.1" id="katman_1" xmlns="http://www.w3.org/2000/svg" xmlns:xlink="http://www.w3.org/1999/xlink" x="0px" y="0px"
	 viewBox="0 0 120 60" style="enable-background:new 0 0 120 60;" xml:space="preserve">
<style type="text/css">
	.st0{stroke:#000B8B;stroke-width:0.75;stroke-miterlimit:10;}
	.st1{font-family:'MyriadPro-Regular';}
	.st2{font-size:39.0783px;}
	.st3{stroke:#000B8B;stroke-miterlimit:10;}
	.st4{font-size:27.7247px;}
	.st5{fill:#10998C;stroke:#FFFFFF;stroke-width:0.75;stroke-miterlimit:10;}
</style>
<text transform="matrix(0.9968 0.7104 -0.5804 0.8144 48.0459 23.9213)" class="st0 st1 st2">Z</text>
<text transform="matrix(1.0159 0 0 1 47.3956 31.9416)" class="st3 st1 st4">-Blog</text>
<g>
	<polyline class="st5" points="6.55,50.3 5.95,28.08 16.95,3.55 	"/>
	<polyline class="st5" points="8.25,50.4 7.66,28.18 18.65,3.65 	"/>
	<polyline class="st5" points="9.96,50.5 9.36,28.28 20.36,3.75 	"/>
	<polyline class="st5" points="11.66,50.6 11.07,28.38 22.06,3.85 	"/>
	<polyline class="st5" points="13.37,50.7 12.77,28.48 23.77,3.95 	"/>
	<polyline class="st5" points="15.07,50.8 14.48,28.58 25.47,4.05 	"/>
	<polyline class="st5" points="16.78,50.9 16.18,28.68 27.18,4.15 	"/>
	<polyline class="st5" points="18.48,51 17.89,28.78 28.88,4.25 	"/>
	<polyline class="st5" points="20.19,51.1 19.59,28.88 30.59,4.35 	"/>
	<polyline class="st5" points="21.89,51.2 21.3,28.98 32.29,4.45 	"/>
	<polyline class="st5" points="23.6,51.3 23,29.08 34,4.55 	"/>
	<polyline class="st5" points="25.3,51.4 24.71,29.18 35.7,4.65 	"/>
	<polyline class="st5" points="27.01,51.5 26.41,29.28 37.41,4.75 	"/>
	<polyline class="st5" points="28.71,51.6 28.12,29.38 39.11,4.85 	"/>
	<polyline class="st5" points="30.42,51.7 29.82,29.48 40.82,4.95 	"/>
</g>
</svg>
